<mxfile host="app.diagrams.net" modified="2023-12-19T18:41:23.138Z" agent="Mozilla/5.0 (Windows NT 10.0; Win64; x64) AppleWebKit/537.36 (KHTML, like Gecko) Chrome/120.0.0.0 Safari/537.36 Edg/120.0.0.0" etag="EQ5iGk5z2VnKUA04oDpr" version="22.1.11" type="github">
  <diagram id="C5RBs43oDa-KdzZeNtuy" name="Page-1">
    <mxGraphModel dx="1375" dy="1035" grid="1" gridSize="10" guides="1" tooltips="1" connect="1" arrows="1" fold="1" page="1" pageScale="1" pageWidth="827" pageHeight="1169" math="0" shadow="0">
      <root>
        <mxCell id="WIyWlLk6GJQsqaUBKTNV-0" />
        <mxCell id="WIyWlLk6GJQsqaUBKTNV-1" parent="WIyWlLk6GJQsqaUBKTNV-0" />
        <mxCell id="qivzjie-yY26VjvFrO5b-0" style="edgeStyle=orthogonalEdgeStyle;rounded=0;orthogonalLoop=1;jettySize=auto;html=1;exitX=1;exitY=0.5;exitDx=0;exitDy=0;exitPerimeter=0;entryX=0;entryY=0.5;entryDx=0;entryDy=0;" edge="1" parent="WIyWlLk6GJQsqaUBKTNV-1" source="qivzjie-yY26VjvFrO5b-1" target="qivzjie-yY26VjvFrO5b-5">
          <mxGeometry relative="1" as="geometry">
            <Array as="points">
              <mxPoint x="190" y="270" />
              <mxPoint x="190" y="215" />
            </Array>
          </mxGeometry>
        </mxCell>
        <mxCell id="qivzjie-yY26VjvFrO5b-1" value="Core" style="strokeWidth=2;html=1;shape=mxgraph.flowchart.database;whiteSpace=wrap;" vertex="1" parent="WIyWlLk6GJQsqaUBKTNV-1">
          <mxGeometry x="70" y="230" width="60" height="60" as="geometry" />
        </mxCell>
        <mxCell id="qivzjie-yY26VjvFrO5b-2" value="&lt;br&gt;&lt;br&gt;UA Developer" style="shape=actor;whiteSpace=wrap;html=1;labelPosition=center;verticalLabelPosition=middle;align=center;verticalAlign=middle;" vertex="1" parent="WIyWlLk6GJQsqaUBKTNV-1">
          <mxGeometry x="455" y="290" width="70" height="80" as="geometry" />
        </mxCell>
        <mxCell id="qivzjie-yY26VjvFrO5b-3" style="edgeStyle=orthogonalEdgeStyle;rounded=0;orthogonalLoop=1;jettySize=auto;html=1;exitX=1;exitY=0.5;exitDx=0;exitDy=0;exitPerimeter=0;entryX=0.5;entryY=0;entryDx=0;entryDy=0;" edge="1" parent="WIyWlLk6GJQsqaUBKTNV-1" source="qivzjie-yY26VjvFrO5b-4" target="qivzjie-yY26VjvFrO5b-5">
          <mxGeometry relative="1" as="geometry" />
        </mxCell>
        <mxCell id="qivzjie-yY26VjvFrO5b-4" value="IETM" style="strokeWidth=2;html=1;shape=mxgraph.flowchart.multi-document;whiteSpace=wrap;" vertex="1" parent="WIyWlLk6GJQsqaUBKTNV-1">
          <mxGeometry x="90.5" y="110" width="88" height="60" as="geometry" />
        </mxCell>
        <mxCell id="qivzjie-yY26VjvFrO5b-5" value="Associate TC Components&lt;br&gt;to LMD" style="verticalLabelPosition=middle;verticalAlign=middle;html=1;shape=trapezoid;perimeter=trapezoidPerimeter;whiteSpace=wrap;size=0.23;arcSize=10;flipV=1;labelPosition=center;align=center;" vertex="1" parent="WIyWlLk6GJQsqaUBKTNV-1">
          <mxGeometry x="212" y="180" width="120" height="70" as="geometry" />
        </mxCell>
        <mxCell id="qivzjie-yY26VjvFrO5b-6" value="" style="endArrow=classic;html=1;rounded=0;entryX=1;entryY=0.5;entryDx=0;entryDy=0;exitX=0.1;exitY=0.5;exitDx=0;exitDy=0;exitPerimeter=0;startArrow=none;startFill=0;" edge="1" parent="WIyWlLk6GJQsqaUBKTNV-1" source="qivzjie-yY26VjvFrO5b-2" target="qivzjie-yY26VjvFrO5b-5">
          <mxGeometry width="50" height="50" relative="1" as="geometry">
            <mxPoint x="242" y="330" as="sourcePoint" />
            <mxPoint x="362" y="490" as="targetPoint" />
          </mxGeometry>
        </mxCell>
        <mxCell id="qivzjie-yY26VjvFrO5b-7" style="edgeStyle=orthogonalEdgeStyle;rounded=0;orthogonalLoop=1;jettySize=auto;html=1;exitX=0.5;exitY=0;exitDx=0;exitDy=0;startArrow=classic;startFill=1;endArrow=none;endFill=0;" edge="1" parent="WIyWlLk6GJQsqaUBKTNV-1" source="qivzjie-yY26VjvFrO5b-8" target="qivzjie-yY26VjvFrO5b-20">
          <mxGeometry relative="1" as="geometry" />
        </mxCell>
        <mxCell id="qivzjie-yY26VjvFrO5b-50" style="edgeStyle=orthogonalEdgeStyle;rounded=0;orthogonalLoop=1;jettySize=auto;html=1;exitX=0;exitY=0.5;exitDx=0;exitDy=0;" edge="1" parent="WIyWlLk6GJQsqaUBKTNV-1" source="qivzjie-yY26VjvFrO5b-8" target="qivzjie-yY26VjvFrO5b-49">
          <mxGeometry relative="1" as="geometry" />
        </mxCell>
        <mxCell id="qivzjie-yY26VjvFrO5b-8" value="Git commit to&lt;br&gt;specific branch&lt;br&gt;on GitLab" style="verticalLabelPosition=middle;verticalAlign=middle;html=1;shape=trapezoid;perimeter=trapezoidPerimeter;whiteSpace=wrap;size=0.23;arcSize=10;flipV=1;labelPosition=center;align=center;" vertex="1" parent="WIyWlLk6GJQsqaUBKTNV-1">
          <mxGeometry x="212" y="400" width="120" height="70" as="geometry" />
        </mxCell>
        <mxCell id="qivzjie-yY26VjvFrO5b-10" value="Input Phase" style="text;html=1;strokeColor=none;fillColor=none;align=center;verticalAlign=middle;whiteSpace=wrap;rounded=0;fontSize=36;" vertex="1" parent="WIyWlLk6GJQsqaUBKTNV-1">
          <mxGeometry x="212" y="70" width="265" height="30" as="geometry" />
        </mxCell>
        <mxCell id="qivzjie-yY26VjvFrO5b-11" value="" style="endArrow=classic;html=1;rounded=0;entryX=1;entryY=0.25;entryDx=0;entryDy=0;exitX=0;exitY=0.75;exitDx=0;exitDy=0;" edge="1" parent="WIyWlLk6GJQsqaUBKTNV-1" source="qivzjie-yY26VjvFrO5b-2" target="qivzjie-yY26VjvFrO5b-8">
          <mxGeometry width="50" height="50" relative="1" as="geometry">
            <mxPoint x="360" y="580" as="sourcePoint" />
            <mxPoint x="410" y="530" as="targetPoint" />
          </mxGeometry>
        </mxCell>
        <mxCell id="qivzjie-yY26VjvFrO5b-12" value="" style="group" vertex="1" connectable="0" parent="WIyWlLk6GJQsqaUBKTNV-1">
          <mxGeometry x="595" y="350" width="135" height="100" as="geometry" />
        </mxCell>
        <mxCell id="qivzjie-yY26VjvFrO5b-13" value="C++ Source Code" style="strokeWidth=2;html=1;shape=mxgraph.flowchart.multi-document;whiteSpace=wrap;" vertex="1" parent="qivzjie-yY26VjvFrO5b-12">
          <mxGeometry x="40" y="30" width="88" height="60" as="geometry" />
        </mxCell>
        <mxCell id="qivzjie-yY26VjvFrO5b-14" value="Visual Studio" style="rounded=0;whiteSpace=wrap;html=1;fillColor=none;align=center;verticalAlign=top;" vertex="1" parent="qivzjie-yY26VjvFrO5b-12">
          <mxGeometry width="135" height="100" as="geometry" />
        </mxCell>
        <mxCell id="qivzjie-yY26VjvFrO5b-15" value="" style="group" vertex="1" connectable="0" parent="WIyWlLk6GJQsqaUBKTNV-1">
          <mxGeometry x="595" y="240" width="135" height="100" as="geometry" />
        </mxCell>
        <mxCell id="qivzjie-yY26VjvFrO5b-16" value="UE 5&lt;br&gt;Blueprints" style="strokeWidth=2;html=1;shape=mxgraph.flowchart.multi-document;whiteSpace=wrap;" vertex="1" parent="qivzjie-yY26VjvFrO5b-15">
          <mxGeometry x="40" y="30" width="88" height="60" as="geometry" />
        </mxCell>
        <mxCell id="qivzjie-yY26VjvFrO5b-17" value="Unreal Engine" style="rounded=0;whiteSpace=wrap;html=1;fillColor=none;align=center;verticalAlign=top;" vertex="1" parent="qivzjie-yY26VjvFrO5b-15">
          <mxGeometry width="135" height="100" as="geometry" />
        </mxCell>
        <mxCell id="qivzjie-yY26VjvFrO5b-18" value="" style="endArrow=none;html=1;rounded=0;exitX=1;exitY=0.75;exitDx=0;exitDy=0;startArrow=none;startFill=0;endFill=0;" edge="1" parent="WIyWlLk6GJQsqaUBKTNV-1" source="qivzjie-yY26VjvFrO5b-2" target="qivzjie-yY26VjvFrO5b-14">
          <mxGeometry width="50" height="50" relative="1" as="geometry">
            <mxPoint x="475" y="590" as="sourcePoint" />
            <mxPoint x="525" y="540" as="targetPoint" />
          </mxGeometry>
        </mxCell>
        <mxCell id="qivzjie-yY26VjvFrO5b-19" value="" style="endArrow=none;html=1;rounded=0;exitX=0.9;exitY=0.5;exitDx=0;exitDy=0;exitPerimeter=0;entryX=0;entryY=0.5;entryDx=0;entryDy=0;startArrow=none;startFill=0;endFill=0;" edge="1" parent="WIyWlLk6GJQsqaUBKTNV-1" source="qivzjie-yY26VjvFrO5b-2" target="qivzjie-yY26VjvFrO5b-17">
          <mxGeometry width="50" height="50" relative="1" as="geometry">
            <mxPoint x="529" y="330" as="sourcePoint" />
            <mxPoint x="579" y="280" as="targetPoint" />
          </mxGeometry>
        </mxCell>
        <mxCell id="qivzjie-yY26VjvFrO5b-20" value="SQL" style="strokeWidth=2;html=1;shape=mxgraph.flowchart.document2;whiteSpace=wrap;size=0.25;" vertex="1" parent="WIyWlLk6GJQsqaUBKTNV-1">
          <mxGeometry x="222" y="290" width="100" height="60" as="geometry" />
        </mxCell>
        <mxCell id="qivzjie-yY26VjvFrO5b-21" style="edgeStyle=orthogonalEdgeStyle;rounded=0;orthogonalLoop=1;jettySize=auto;html=1;exitX=0.5;exitY=1;exitDx=0;exitDy=0;entryX=0.5;entryY=0;entryDx=0;entryDy=0;entryPerimeter=0;" edge="1" parent="WIyWlLk6GJQsqaUBKTNV-1" source="qivzjie-yY26VjvFrO5b-5" target="qivzjie-yY26VjvFrO5b-20">
          <mxGeometry relative="1" as="geometry" />
        </mxCell>
        <mxCell id="qivzjie-yY26VjvFrO5b-26" value="Test Phase" style="text;html=1;strokeColor=none;fillColor=none;align=center;verticalAlign=middle;whiteSpace=wrap;rounded=0;fontSize=36;" vertex="1" parent="WIyWlLk6GJQsqaUBKTNV-1">
          <mxGeometry x="252" y="570" width="265" height="30" as="geometry" />
        </mxCell>
        <mxCell id="qivzjie-yY26VjvFrO5b-29" value="&lt;br&gt;&lt;br&gt;UA Developer" style="shape=actor;whiteSpace=wrap;html=1;labelPosition=center;verticalLabelPosition=middle;align=center;verticalAlign=middle;" vertex="1" parent="WIyWlLk6GJQsqaUBKTNV-1">
          <mxGeometry x="419" y="930" width="70" height="80" as="geometry" />
        </mxCell>
        <mxCell id="qivzjie-yY26VjvFrO5b-32" value="" style="endArrow=classic;html=1;rounded=0;exitX=1;exitY=0.75;exitDx=0;exitDy=0;entryX=0;entryY=0.75;entryDx=0;entryDy=0;" edge="1" parent="WIyWlLk6GJQsqaUBKTNV-1" source="qivzjie-yY26VjvFrO5b-29" target="qivzjie-yY26VjvFrO5b-22">
          <mxGeometry width="50" height="50" relative="1" as="geometry">
            <mxPoint x="558.5" y="915" as="sourcePoint" />
            <mxPoint x="608.5" y="865" as="targetPoint" />
          </mxGeometry>
        </mxCell>
        <mxCell id="qivzjie-yY26VjvFrO5b-34" value="" style="endArrow=none;html=1;rounded=0;exitX=0.75;exitY=0;exitDx=0;exitDy=0;endFill=0;entryX=0;entryY=0.75;entryDx=0;entryDy=0;" edge="1" parent="WIyWlLk6GJQsqaUBKTNV-1" source="qivzjie-yY26VjvFrO5b-35" target="qivzjie-yY26VjvFrO5b-40">
          <mxGeometry width="50" height="50" relative="1" as="geometry">
            <mxPoint x="130.4985424949238" y="857.5735931288073" as="sourcePoint" />
            <mxPoint x="243.93" y="790" as="targetPoint" />
          </mxGeometry>
        </mxCell>
        <mxCell id="qivzjie-yY26VjvFrO5b-35" value="Updating the stack is a process that can take minutes. This dramatically slows down the iterative nature of data entry.&lt;br&gt;Historically, there have been times where the Bowser Stack for a specific branch does not update." style="text;html=1;strokeColor=default;fillColor=none;align=left;verticalAlign=top;whiteSpace=wrap;rounded=0;labelPosition=center;verticalLabelPosition=middle;perimeterSpacing=1;" vertex="1" parent="WIyWlLk6GJQsqaUBKTNV-1">
          <mxGeometry x="160" y="835" width="200" height="115" as="geometry" />
        </mxCell>
        <mxCell id="qivzjie-yY26VjvFrO5b-36" value="CI/CD Update Stack on Commit to Specific Branch" style="verticalLabelPosition=middle;verticalAlign=middle;html=1;shape=process;whiteSpace=wrap;rounded=1;size=0.14;arcSize=6;labelPosition=center;align=center;" vertex="1" parent="WIyWlLk6GJQsqaUBKTNV-1">
          <mxGeometry x="210" y="690" width="140" height="60" as="geometry" />
        </mxCell>
        <mxCell id="qivzjie-yY26VjvFrO5b-38" style="edgeStyle=orthogonalEdgeStyle;rounded=0;orthogonalLoop=1;jettySize=auto;html=1;exitX=1;exitY=0.5;exitDx=0;exitDy=0;entryX=0;entryY=0.5;entryDx=0;entryDy=0;" edge="1" parent="WIyWlLk6GJQsqaUBKTNV-1" source="qivzjie-yY26VjvFrO5b-37" target="qivzjie-yY26VjvFrO5b-36">
          <mxGeometry relative="1" as="geometry" />
        </mxCell>
        <mxCell id="qivzjie-yY26VjvFrO5b-37" value="GitLab" style="rounded=0;whiteSpace=wrap;html=1;" vertex="1" parent="WIyWlLk6GJQsqaUBKTNV-1">
          <mxGeometry x="50" y="690" width="120" height="60" as="geometry" />
        </mxCell>
        <mxCell id="qivzjie-yY26VjvFrO5b-39" style="edgeStyle=orthogonalEdgeStyle;rounded=0;orthogonalLoop=1;jettySize=auto;html=1;exitX=1;exitY=0.5;exitDx=0;exitDy=0;entryX=0;entryY=0.5;entryDx=0;entryDy=0;" edge="1" parent="WIyWlLk6GJQsqaUBKTNV-1" source="qivzjie-yY26VjvFrO5b-36" target="qivzjie-yY26VjvFrO5b-40">
          <mxGeometry relative="1" as="geometry" />
        </mxCell>
        <mxCell id="qivzjie-yY26VjvFrO5b-45" value="" style="group" vertex="1" connectable="0" parent="WIyWlLk6GJQsqaUBKTNV-1">
          <mxGeometry x="420" y="695" width="231.5" height="180" as="geometry" />
        </mxCell>
        <mxCell id="qivzjie-yY26VjvFrO5b-46" value="" style="group" vertex="1" connectable="0" parent="qivzjie-yY26VjvFrO5b-45">
          <mxGeometry y="-30" width="231.5" height="110" as="geometry" />
        </mxCell>
        <mxCell id="qivzjie-yY26VjvFrO5b-28" value="Core" style="strokeWidth=2;html=1;shape=mxgraph.flowchart.database;whiteSpace=wrap;" vertex="1" parent="qivzjie-yY26VjvFrO5b-46">
          <mxGeometry x="21.5" y="30" width="60" height="60" as="geometry" />
        </mxCell>
        <mxCell id="qivzjie-yY26VjvFrO5b-40" value="Boswer Stack" style="rounded=0;whiteSpace=wrap;html=1;labelPosition=center;verticalLabelPosition=middle;align=center;verticalAlign=top;fillColor=none;" vertex="1" parent="qivzjie-yY26VjvFrO5b-46">
          <mxGeometry width="231.5" height="110" as="geometry" />
        </mxCell>
        <mxCell id="qivzjie-yY26VjvFrO5b-43" value="API" style="verticalLabelPosition=middle;verticalAlign=middle;html=1;shape=process;whiteSpace=wrap;rounded=1;size=0.14;arcSize=6;labelPosition=center;align=center;" vertex="1" parent="qivzjie-yY26VjvFrO5b-46">
          <mxGeometry x="111.5" y="30" width="100" height="60" as="geometry" />
        </mxCell>
        <mxCell id="qivzjie-yY26VjvFrO5b-22" value="Trainer in Edit Mode" style="rounded=0;whiteSpace=wrap;html=1;" vertex="1" parent="WIyWlLk6GJQsqaUBKTNV-1">
          <mxGeometry x="558.5" y="885" width="120" height="60" as="geometry" />
        </mxCell>
        <mxCell id="qivzjie-yY26VjvFrO5b-42" value="" style="endArrow=classic;html=1;rounded=0;entryX=0.5;entryY=1;entryDx=0;entryDy=0;exitX=0.25;exitY=0;exitDx=0;exitDy=0;startArrow=classic;startFill=1;" edge="1" parent="WIyWlLk6GJQsqaUBKTNV-1" source="qivzjie-yY26VjvFrO5b-22" target="qivzjie-yY26VjvFrO5b-40">
          <mxGeometry width="50" height="50" relative="1" as="geometry">
            <mxPoint x="550" y="660" as="sourcePoint" />
            <mxPoint x="600" y="610" as="targetPoint" />
          </mxGeometry>
        </mxCell>
        <mxCell id="qivzjie-yY26VjvFrO5b-44" value="Requires Custom&lt;br&gt;Connection String in Editor" style="edgeLabel;html=1;align=center;verticalAlign=middle;resizable=0;points=[];" vertex="1" connectable="0" parent="qivzjie-yY26VjvFrO5b-42">
          <mxGeometry x="0.0532" relative="1" as="geometry">
            <mxPoint as="offset" />
          </mxGeometry>
        </mxCell>
        <mxCell id="qivzjie-yY26VjvFrO5b-49" value="GitLab" style="rounded=0;whiteSpace=wrap;html=1;" vertex="1" parent="WIyWlLk6GJQsqaUBKTNV-1">
          <mxGeometry x="40" y="405" width="120" height="60" as="geometry" />
        </mxCell>
      </root>
    </mxGraphModel>
  </diagram>
</mxfile>
